# xmcd CD database file
#
# Track frame offsets:
#	150
#	22620
#	44935
#	67090
#	89430
#	108882
#	126297
#	143035
#	153152
#	171262
#
# Disc length: 2559 seconds
#
# Revision: 0
# Processed by: cddbd v1.5.1PL0 Copyright (c) Steve Scherf et al.
# Submitted via: CDex 1.51
#
DISCID=8409fd0a
DTITLE=福山稠･福山純一 - ほーら、泣きやんだ！　お母さんと赤ちゃんのために　CD1 妊娠がわかったら
DYEAR=2000
DGENRE=Pop
TTITLE0=なつかしい愛の歌 (D1)
TTITLE1=ちいさなほほえみ (D1)
TTITLE2=やすらぎ (D1)
TTITLE3=星に願いを (D1)
TTITLE4=だきしめちゃうよ (D1)
TTITLE5=ユーモレスク (D1)
TTITLE6=ララルー (D1)
TTITLE7=ぞうさん (D1)
TTITLE8=ゆりかご (D1)
TTITLE9=おやすみなさい (D1)
EXTD=YEAR: 2000
EXTT0=
EXTT1=
EXTT2=
EXTT3=
EXTT4=
EXTT5=
EXTT6=
EXTT7=
EXTT8=
EXTT9=
PLAYORDER=
